<svg width="19" height="19" viewBox="0 0 19 19" fill="none" xmlns="http://www.w3.org/2000/svg">
<g clip-path="url(#clip0_2955_75)">
<path d="M15.835 15.839H13.17V11.662C13.17 10.666 13.15 9.384 11.78 9.384C10.391 9.384 10.179 10.468 10.179 11.589V15.839H7.513V7.25H10.073V8.42H10.108C10.466 7.746 11.336 7.033 12.636 7.033C15.336 7.033 15.836 8.811 15.836 11.124V15.839H15.835ZM4.503 6.075C4.29956 6.07526 4.09806 6.03537 3.91006 5.95761C3.72207 5.87984 3.55127 5.76574 3.40746 5.62184C3.26365 5.47793 3.14965 5.30706 3.07201 5.11901C2.99437 4.93097 2.9546 4.72944 2.955 4.526C2.9552 4.21983 3.04618 3.9206 3.21644 3.66615C3.3867 3.41169 3.62859 3.21343 3.91153 3.09645C4.19447 2.97947 4.50574 2.94902 4.80598 3.00894C5.10622 3.06886 5.38196 3.21647 5.59831 3.43311C5.81466 3.64974 5.96191 3.92566 6.02145 4.22598C6.08099 4.5263 6.05013 4.83753 5.93278 5.12032C5.81544 5.4031 5.61687 5.64474 5.36219 5.81467C5.10751 5.9846 4.80917 6.0752 4.503 6.075ZM5.839 15.839H3.166V7.25H5.84L5.839 15.839ZM17.17 0.5H1.829C1.093 0.5 0.5 1.08 0.5 1.797V17.203C0.5 17.92 1.094 18.5 1.828 18.5H17.166C17.9 18.5 18.5 17.92 18.5 17.203V1.797C18.5 1.08 17.9 0.5 17.166 0.5H17.17Z" fill="black"/>
</g>
<defs>
<clipPath id="clip0_2955_75">
<rect width="18" height="18" fill="white" transform="translate(0.5 0.5)"/>
</clipPath>
</defs>
</svg>
